<svg width="295" height="56" viewBox="0 0 295 56" fill="none" xmlns="http://www.w3.org/2000/svg">
<rect width="295" height="56" rx="28" fill="#FF383C" fill-opacity="0.5"/>
<circle cx="28" cy="28" r="20" fill="white"/>
<path d="M21 20H25L27 25L24.5 26.5C25.571 28.6715 27.3285 30.429 29.5 31.5L31 29L36 31V35C36 35.5304 35.7893 36.0391 35.4142 36.4142C35.0391 36.7893 34.5304 37 34 37C30.0993 36.763 26.4202 35.1065 23.6568 32.3432C20.8935 29.5798 19.237 25.9007 19 22C19 21.4696 19.2107 20.9609 19.5858 20.5858C19.9609 20.2107 20.4696 20 21 20" stroke="#FF383C" stroke-opacity="0.5" stroke-width="2" stroke-linecap="round" stroke-linejoin="round"/>
<path d="M31 23C31.5304 23 32.0391 23.2107 32.4142 23.5858C32.7893 23.9609 33 24.4696 33 25" stroke="#FF383C" stroke-opacity="0.5" stroke-width="2" stroke-linecap="round" stroke-linejoin="round"/>
<path d="M31 19C32.5913 19 34.1174 19.6321 35.2426 20.7574C36.3679 21.8826 37 23.4087 37 25" stroke="#FF383C" stroke-opacity="0.5" stroke-width="2" stroke-linecap="round" stroke-linejoin="round"/>
<path d="M83.6773 33V21.72H85.7253V31.256H91.1333V33H83.6773ZM95.9596 33.16C95.1489 33.16 94.4449 32.9947 93.8476 32.664C93.2502 32.3333 92.7862 31.864 92.4556 31.256C92.1249 30.6373 91.9596 29.912 91.9596 29.08C91.9596 28.248 92.1249 27.528 92.4556 26.92C92.7862 26.312 93.2502 25.8427 93.8476 25.512C94.4449 25.1813 95.1489 25.016 95.9596 25.016C96.7702 25.016 97.4742 25.1813 98.0716 25.512C98.6689 25.8427 99.1329 26.312 99.4636 26.92C99.7942 27.528 99.9596 28.248 99.9596 29.08C99.9596 29.912 99.7942 30.6373 99.4636 31.256C99.1329 31.864 98.6689 32.3333 98.0716 32.664C97.4742 32.9947 96.7702 33.16 95.9596 33.16ZM95.9596 31.64C96.5569 31.64 97.0369 31.4267 97.3996 31C97.7622 30.5627 97.9436 29.9227 97.9436 29.08C97.9436 28.2267 97.7622 27.592 97.3996 27.176C97.0369 26.7493 96.5569 26.536 95.9596 26.536C95.3622 26.536 94.8822 26.7493 94.5196 27.176C94.1569 27.592 93.9756 28.2267 93.9756 29.08C93.9756 29.9227 94.1569 30.5627 94.5196 31C94.8822 31.4267 95.3622 31.64 95.9596 31.64ZM105.258 36.04C104.533 36.04 103.85 35.9547 103.21 35.784C102.581 35.624 102.026 35.3733 101.546 35.032L102.122 33.64C102.421 33.832 102.736 33.992 103.066 34.12C103.397 34.2587 103.733 34.36 104.074 34.424C104.416 34.488 104.757 34.52 105.098 34.52C105.813 34.52 106.346 34.344 106.698 33.992C107.061 33.6507 107.242 33.1387 107.242 32.456V31.016H107.386C107.226 31.56 106.89 31.9973 106.378 32.328C105.877 32.648 105.306 32.808 104.666 32.808C103.962 32.808 103.349 32.648 102.826 32.328C102.304 31.9973 101.898 31.5387 101.61 30.952C101.322 30.3653 101.178 29.6827 101.178 28.904C101.178 28.1253 101.322 27.448 101.61 26.872C101.898 26.2853 102.304 25.832 102.826 25.512C103.349 25.1813 103.962 25.016 104.666 25.016C105.328 25.016 105.904 25.1813 106.394 25.512C106.896 25.832 107.221 26.2587 107.37 26.792H107.242V25.176H109.194V32.216C109.194 33.0587 109.045 33.7627 108.746 34.328C108.448 34.904 108.005 35.3307 107.418 35.608C106.832 35.896 106.112 36.04 105.258 36.04ZM105.21 31.288C105.829 31.288 106.32 31.0747 106.682 30.648C107.045 30.2213 107.226 29.64 107.226 28.904C107.226 28.168 107.045 27.592 106.682 27.176C106.32 26.7493 105.829 26.536 105.21 26.536C104.592 26.536 104.101 26.7493 103.738 27.176C103.376 27.592 103.194 28.168 103.194 28.904C103.194 29.64 103.376 30.2213 103.738 30.648C104.101 31.0747 104.592 31.288 105.21 31.288ZM111.139 23.496V21.544H113.379V23.496H111.139ZM111.267 33V25.176H113.267V33H111.267ZM115.345 33V25.176H117.297V26.744H117.121C117.355 26.1787 117.718 25.752 118.209 25.464C118.71 25.1653 119.275 25.016 119.905 25.016C120.534 25.016 121.051 25.1333 121.457 25.368C121.862 25.6027 122.166 25.96 122.369 26.44C122.571 26.9093 122.673 27.5067 122.673 28.232V33H120.673V28.328C120.673 27.9227 120.619 27.592 120.513 27.336C120.417 27.08 120.262 26.8933 120.049 26.776C119.846 26.648 119.585 26.584 119.265 26.584C118.881 26.584 118.545 26.6693 118.257 26.84C117.969 27 117.745 27.2347 117.585 27.544C117.425 27.8427 117.345 28.1947 117.345 28.6V33H115.345ZM131.177 33L128.089 25.176H130.137L132.313 31.176H131.945L134.153 25.176H135.561L137.737 31.176H137.401L139.577 25.176H141.513L138.441 33H136.697L134.329 26.744H135.241L132.921 33H131.177ZM142.529 23.496V21.544H144.769V23.496H142.529ZM142.657 33V25.176H144.657V33H142.657ZM150.319 33.16C149.274 33.16 148.495 32.8987 147.983 32.376C147.471 31.8533 147.215 31.0907 147.215 30.088V26.68H145.711V25.176H147.215V22.84H149.215V25.176H151.583V26.68H149.215V29.976C149.215 30.488 149.327 30.872 149.551 31.128C149.775 31.384 150.138 31.512 150.639 31.512C150.789 31.512 150.943 31.496 151.103 31.464C151.263 31.4213 151.429 31.3787 151.599 31.336L151.903 32.808C151.711 32.9147 151.466 33 151.167 33.064C150.879 33.128 150.597 33.16 150.319 33.16ZM152.876 33V21.72H154.876V26.744H154.652C154.887 26.1787 155.249 25.752 155.74 25.464C156.241 25.1653 156.807 25.016 157.436 25.016C158.065 25.016 158.583 25.1333 158.988 25.368C159.393 25.6027 159.697 25.96 159.9 26.44C160.103 26.9093 160.204 27.5067 160.204 28.232V33H158.204V28.328C158.204 27.9227 158.151 27.592 158.044 27.336C157.948 27.08 157.793 26.8933 157.58 26.776C157.377 26.648 157.116 26.584 156.796 26.584C156.412 26.584 156.076 26.6693 155.788 26.84C155.5 27 155.276 27.2347 155.116 27.544C154.956 27.8427 154.876 28.1947 154.876 28.6V33H152.876ZM166.74 33V21.72H171.636C172.468 21.72 173.172 21.8587 173.748 22.136C174.324 22.4133 174.761 22.8133 175.06 23.336C175.358 23.8587 175.508 24.4933 175.508 25.24C175.508 25.976 175.358 26.6107 175.06 27.144C174.761 27.6667 174.324 28.072 173.748 28.36C173.172 28.6373 172.468 28.776 171.636 28.776H168.788V33H166.74ZM168.788 27.16H171.316C172.041 27.16 172.59 27 172.964 26.68C173.337 26.3493 173.524 25.8693 173.524 25.24C173.524 24.6107 173.337 24.136 172.964 23.816C172.59 23.496 172.041 23.336 171.316 23.336H168.788V27.16ZM176.985 33V21.72H178.985V26.744H178.761C178.996 26.1787 179.359 25.752 179.849 25.464C180.351 25.1653 180.916 25.016 181.545 25.016C182.175 25.016 182.692 25.1333 183.097 25.368C183.503 25.6027 183.807 25.96 184.009 26.44C184.212 26.9093 184.313 27.5067 184.313 28.232V33H182.313V28.328C182.313 27.9227 182.26 27.592 182.153 27.336C182.057 27.08 181.903 26.8933 181.689 26.776C181.487 26.648 181.225 26.584 180.905 26.584C180.521 26.584 180.185 26.6693 179.897 26.84C179.609 27 179.385 27.2347 179.225 27.544C179.065 27.8427 178.985 28.1947 178.985 28.6V33H176.985ZM189.913 33.16C189.102 33.16 188.398 32.9947 187.801 32.664C187.203 32.3333 186.739 31.864 186.409 31.256C186.078 30.6373 185.913 29.912 185.913 29.08C185.913 28.248 186.078 27.528 186.409 26.92C186.739 26.312 187.203 25.8427 187.801 25.512C188.398 25.1813 189.102 25.016 189.913 25.016C190.723 25.016 191.427 25.1813 192.025 25.512C192.622 25.8427 193.086 26.312 193.417 26.92C193.747 27.528 193.913 28.248 193.913 29.08C193.913 29.912 193.747 30.6373 193.417 31.256C193.086 31.864 192.622 32.3333 192.025 32.664C191.427 32.9947 190.723 33.16 189.913 33.16ZM189.913 31.64C190.51 31.64 190.99 31.4267 191.353 31C191.715 30.5627 191.897 29.9227 191.897 29.08C191.897 28.2267 191.715 27.592 191.353 27.176C190.99 26.7493 190.51 26.536 189.913 26.536C189.315 26.536 188.835 26.7493 188.473 27.176C188.11 27.592 187.929 28.2267 187.929 29.08C187.929 29.9227 188.11 30.5627 188.473 31C188.835 31.4267 189.315 31.64 189.913 31.64ZM195.563 33V25.176H197.515V26.744H197.339C197.574 26.1787 197.937 25.752 198.427 25.464C198.929 25.1653 199.494 25.016 200.123 25.016C200.753 25.016 201.27 25.1333 201.675 25.368C202.081 25.6027 202.385 25.96 202.587 26.44C202.79 26.9093 202.891 27.5067 202.891 28.232V33H200.891V28.328C200.891 27.9227 200.838 27.592 200.731 27.336C200.635 27.08 200.481 26.8933 200.267 26.776C200.065 26.648 199.803 26.584 199.483 26.584C199.099 26.584 198.763 26.6693 198.475 26.84C198.187 27 197.963 27.2347 197.803 27.544C197.643 27.8427 197.563 28.1947 197.563 28.6V33H195.563ZM208.779 33.16C207.893 33.16 207.131 32.9947 206.491 32.664C205.851 32.3333 205.355 31.864 205.003 31.256C204.661 30.648 204.491 29.928 204.491 29.096C204.491 28.2853 204.656 27.576 204.987 26.968C205.328 26.36 205.792 25.8853 206.379 25.544C206.976 25.192 207.653 25.016 208.411 25.016C209.157 25.016 209.797 25.176 210.331 25.496C210.864 25.816 211.275 26.2693 211.563 26.856C211.861 27.4427 212.011 28.1413 212.011 28.952V29.544H206.107V28.392H210.603L210.347 28.632C210.347 27.9067 210.187 27.352 209.867 26.968C209.547 26.5733 209.088 26.376 208.491 26.376C208.043 26.376 207.659 26.4827 207.339 26.696C207.029 26.8987 206.789 27.192 206.619 27.576C206.459 27.9493 206.379 28.3973 206.379 28.92V29.032C206.379 29.6187 206.469 30.104 206.651 30.488C206.832 30.872 207.104 31.16 207.467 31.352C207.829 31.544 208.277 31.64 208.811 31.64C209.248 31.64 209.685 31.576 210.123 31.448C210.56 31.3093 210.96 31.096 211.323 30.808L211.883 32.152C211.509 32.4613 211.04 32.7067 210.475 32.888C209.909 33.0693 209.344 33.16 208.779 33.16Z" fill="white"/>
</svg>
