<svg width="35" height="35" viewBox="0 0 35 35" fill="none" xmlns="http://www.w3.org/2000/svg">
<path d="M20 17.5C20.0118 14.4691 20.8105 11.4931 22.3181 8.8637C23.8256 6.23425 25.9903 4.04144 28.6 2.5C26.6648 1.69879 24.5944 1.27452 22.5 1.25C18.1902 1.25 14.057 2.96205 11.0095 6.00951C7.96205 9.05698 6.25 13.1902 6.25 17.5C6.25 21.8098 7.96205 25.943 11.0095 28.9905C14.057 32.038 18.1902 33.75 22.5 33.75C24.6196 33.7351 26.7164 33.3106 28.675 32.5C26.0513 30.9679 23.8717 28.7791 22.3507 26.1491C20.8296 23.519 20.0195 20.5382 20 17.5Z" fill="#D9D9D9" stroke="#000001" stroke-linecap="round" stroke-linejoin="round"/>
</svg>
