<svg width="150" height="56" viewBox="0 0 150 56" fill="none" xmlns="http://www.w3.org/2000/svg">
<g filter="url(#filter0_d_1268_566)">
<path d="M5 27.8176C5 15.2158 15.2158 5 27.8176 5H121.826C134.428 5 144.644 15.2158 144.644 27.8176C144.644 40.4194 134.428 50.6352 121.826 50.6352H27.8176C15.2158 50.6352 5 40.4194 5 27.8176Z" fill="#FF383C" fill-opacity="0.2" shape-rendering="crispEdges"/>
</g>
<path d="M36.0504 35.4128V22.7228H38.4804L44.8164 30.6248H44.3124V22.7228H47.3724V35.4128H44.9604L38.6244 27.4928H39.1284V35.4128H36.0504ZM49.6911 35.4128V22.7228H58.6551V25.2788H52.8591V27.6908H58.2411V30.2468H52.8591V32.8568H58.6551V35.4128H49.6911ZM59.1106 35.4128L64.5286 28.2668V29.7608L59.2186 22.7228H63.0526L66.3826 27.3488H65.3026L68.6326 22.7228H72.4846L67.1566 29.7608V28.2668L72.5746 35.4128H68.7226L65.3206 30.6788H66.3646L62.9626 35.4128H59.1106ZM76.2689 35.4128V25.4228H72.2369V22.7228H83.6129V25.4228H79.5809V35.4128H76.2689Z" fill="#FF383C" fill-opacity="0.5"/>
<path d="M118.882 28.5247C119.273 28.1342 119.273 27.501 118.882 27.1105L112.518 20.7465C112.128 20.356 111.495 20.356 111.104 20.7465C110.714 21.137 110.714 21.7702 111.104 22.1607L116.761 27.8176L111.104 33.4744C110.714 33.865 110.714 34.4981 111.104 34.8886C111.495 35.2792 112.128 35.2792 112.518 34.8887L118.882 28.5247ZM100.834 27.8176L100.834 28.8176L118.175 28.8176L118.175 27.8176L118.175 26.8176L100.834 26.8176L100.834 27.8176Z" fill="#FF383C" fill-opacity="0.5"/>
<defs>
<filter id="filter0_d_1268_566" x="0" y="0" width="149.644" height="55.6352" filterUnits="userSpaceOnUse" color-interpolation-filters="sRGB">
<feFlood flood-opacity="0" result="BackgroundImageFix"/>
<feColorMatrix in="SourceAlpha" type="matrix" values="0 0 0 0 0 0 0 0 0 0 0 0 0 0 0 0 0 0 127 0" result="hardAlpha"/>
<feOffset/>
<feGaussianBlur stdDeviation="2.5"/>
<feComposite in2="hardAlpha" operator="out"/>
<feColorMatrix type="matrix" values="0 0 0 0 0.623529 0 0 0 0 0.623529 0 0 0 0 0.603922 0 0 0 0.4 0"/>
<feBlend mode="normal" in2="BackgroundImageFix" result="effect1_dropShadow_1268_566"/>
<feBlend mode="normal" in="SourceGraphic" in2="effect1_dropShadow_1268_566" result="shape"/>
</filter>
</defs>
</svg>
