<svg width="160" height="56" viewBox="0 0 160 56" fill="none" xmlns="http://www.w3.org/2000/svg">
<g filter="url(#filter0_d_1212_803)">
<path d="M5 27.8176C5 15.2158 15.2158 5 27.8176 5H131.445C144.047 5 154.263 15.2158 154.263 27.8176C154.263 40.4194 144.047 50.6352 131.445 50.6352H27.8176C15.2158 50.6352 5 40.4194 5 27.8176Z" fill="#FF383C" fill-opacity="0.5" shape-rendering="crispEdges"/>
</g>
<path d="M27.6346 34.198C26.9746 34.198 26.3266 34.144 25.6906 34.036C25.0546 33.928 24.4666 33.772 23.9266 33.568C23.3866 33.364 22.9186 33.124 22.5226 32.848L23.4406 30.274C23.8126 30.514 24.2266 30.724 24.6826 30.904C25.1386 31.084 25.6186 31.228 26.1226 31.336C26.6266 31.432 27.1306 31.48 27.6346 31.48C28.4266 31.48 28.9786 31.378 29.2906 31.174C29.6146 30.958 29.7766 30.694 29.7766 30.382C29.7766 30.19 29.7286 30.028 29.6326 29.896C29.5366 29.764 29.3746 29.65 29.1466 29.554C28.9306 29.446 28.6366 29.356 28.2646 29.284L26.1586 28.834C25.0066 28.594 24.1486 28.174 23.5846 27.574C23.0206 26.974 22.7386 26.2 22.7386 25.252C22.7386 24.412 22.9606 23.686 23.4046 23.074C23.8606 22.45 24.4906 21.97 25.2946 21.634C26.1106 21.286 27.0466 21.112 28.1026 21.112C28.6906 21.112 29.2546 21.166 29.7946 21.274C30.3466 21.382 30.8566 21.544 31.3246 21.76C31.7926 21.964 32.1886 22.204 32.5126 22.48L31.5946 24.892C31.1386 24.556 30.6046 24.298 29.9926 24.118C29.3926 23.926 28.7506 23.83 28.0666 23.83C27.6226 23.83 27.2446 23.884 26.9326 23.992C26.6206 24.088 26.3806 24.232 26.2126 24.424C26.0566 24.616 25.9786 24.838 25.9786 25.09C25.9786 25.342 26.0806 25.558 26.2846 25.738C26.5006 25.906 26.8906 26.05 27.4546 26.17L29.5426 26.62C30.7066 26.872 31.5766 27.286 32.1526 27.862C32.7286 28.438 33.0166 29.188 33.0166 30.112C33.0166 30.928 32.7946 31.648 32.3506 32.272C31.9066 32.884 31.2826 33.358 30.4786 33.694C29.6746 34.03 28.7266 34.198 27.6346 34.198ZM39.2512 34.198C38.1712 34.198 37.2352 34.012 36.4432 33.64C35.6632 33.256 35.0632 32.716 34.6432 32.02C34.2232 31.324 34.0132 30.502 34.0132 29.554C34.0132 28.642 34.2112 27.844 34.6072 27.16C35.0152 26.464 35.5672 25.924 36.2632 25.54C36.9712 25.144 37.7752 24.946 38.6752 24.946C39.5752 24.946 40.3492 25.132 40.9972 25.504C41.6452 25.876 42.1432 26.41 42.4912 27.106C42.8512 27.79 43.0312 28.594 43.0312 29.518V30.22H36.6952V28.708H40.6912L40.4032 28.942C40.4032 28.294 40.2652 27.814 39.9892 27.502C39.7132 27.178 39.3232 27.016 38.8192 27.016C38.4472 27.016 38.1232 27.106 37.8472 27.286C37.5832 27.454 37.3792 27.706 37.2352 28.042C37.0912 28.378 37.0192 28.798 37.0192 29.302V29.464C37.0192 30.028 37.0972 30.484 37.2532 30.832C37.4212 31.18 37.6792 31.438 38.0272 31.606C38.3752 31.762 38.8132 31.84 39.3412 31.84C39.7972 31.84 40.2712 31.774 40.7632 31.642C41.2672 31.498 41.7112 31.294 42.0952 31.03L42.8872 33.136C42.4312 33.46 41.8732 33.718 41.2132 33.91C40.5532 34.102 39.8992 34.198 39.2512 34.198ZM44.4116 34V25.144H47.5256V26.692H47.3276C47.6156 26.128 48.0236 25.696 48.5516 25.396C49.0916 25.096 49.7036 24.946 50.3876 24.946C51.0956 24.946 51.6776 25.084 52.1336 25.36C52.5896 25.624 52.9316 26.044 53.1596 26.62C53.3876 27.184 53.5016 27.898 53.5016 28.762V34H50.2976V28.888C50.2976 28.528 50.2556 28.24 50.1716 28.024C50.0876 27.796 49.9616 27.634 49.7936 27.538C49.6376 27.442 49.4396 27.394 49.1996 27.394C48.8756 27.394 48.5936 27.466 48.3536 27.61C48.1136 27.742 47.9276 27.934 47.7956 28.186C47.6756 28.438 47.6156 28.738 47.6156 29.086V34H44.4116ZM58.7836 34.198C58.0276 34.198 57.3556 34.012 56.7676 33.64C56.1916 33.268 55.7356 32.734 55.3996 32.038C55.0756 31.342 54.9136 30.52 54.9136 29.572C54.9136 28.6 55.0756 27.772 55.3996 27.088C55.7356 26.404 56.1916 25.876 56.7676 25.504C57.3556 25.132 58.0276 24.946 58.7836 24.946C59.4436 24.946 60.0376 25.102 60.5656 25.414C61.0936 25.726 61.4476 26.128 61.6276 26.62H61.4296V21.31H64.6336V34H61.5016V32.398H61.6636C61.4956 32.938 61.1416 33.376 60.6016 33.712C60.0736 34.036 59.4676 34.198 58.7836 34.198ZM59.8096 31.84C60.2896 31.84 60.6856 31.66 60.9976 31.3C61.3096 30.94 61.4656 30.364 61.4656 29.572C61.4656 28.768 61.3096 28.192 60.9976 27.844C60.6856 27.484 60.2896 27.304 59.8096 27.304C59.3176 27.304 58.9156 27.484 58.6036 27.844C58.2916 28.192 58.1356 28.768 58.1356 29.572C58.1356 30.364 58.2916 30.94 58.6036 31.3C58.9156 31.66 59.3176 31.84 59.8096 31.84ZM77.9761 34.198C77.0161 34.198 76.1401 34.042 75.3481 33.73C74.5561 33.418 73.8721 32.974 73.2961 32.398C72.7321 31.81 72.2941 31.114 71.9821 30.31C71.6821 29.506 71.5321 28.618 71.5321 27.646C71.5321 26.662 71.6821 25.768 71.9821 24.964C72.2941 24.16 72.7321 23.47 73.2961 22.894C73.8721 22.318 74.5561 21.88 75.3481 21.58C76.1401 21.268 77.0161 21.112 77.9761 21.112C78.9361 21.112 79.8121 21.268 80.6041 21.58C81.3961 21.88 82.0741 22.318 82.6381 22.894C83.2141 23.47 83.6521 24.16 83.9521 24.964C84.2641 25.756 84.4201 26.644 84.4201 27.628C84.4201 28.624 84.2641 29.524 83.9521 30.328C83.6521 31.132 83.2141 31.828 82.6381 32.416C82.0741 32.992 81.3961 33.436 80.6041 33.748C79.8121 34.048 78.9361 34.198 77.9761 34.198ZM77.9761 31.426C78.6121 31.426 79.1521 31.276 79.5961 30.976C80.0401 30.676 80.3821 30.244 80.6221 29.68C80.8621 29.116 80.9821 28.438 80.9821 27.646C80.9821 26.854 80.8621 26.176 80.6221 25.612C80.3941 25.048 80.0521 24.622 79.5961 24.334C79.1521 24.034 78.6121 23.884 77.9761 23.884C77.3521 23.884 76.8121 24.034 76.3561 24.334C75.9121 24.622 75.5701 25.048 75.3301 25.612C75.0901 26.176 74.9701 26.854 74.9701 27.646C74.9701 28.438 75.0841 29.116 75.3121 29.68C75.5521 30.244 75.9001 30.676 76.3561 30.976C76.8121 31.276 77.3521 31.426 77.9761 31.426ZM88.6254 34V24.01H84.5934V21.31H95.9694V24.01H91.9374V34H88.6254ZM97.2213 34V21.31H103.323C104.283 21.31 105.099 21.478 105.771 21.814C106.443 22.138 106.953 22.612 107.301 23.236C107.661 23.848 107.841 24.592 107.841 25.468C107.841 26.32 107.661 27.064 107.301 27.7C106.953 28.324 106.443 28.804 105.771 29.14C105.099 29.464 104.283 29.626 103.323 29.626H100.533V34H97.2213ZM100.533 27.088H102.747C103.371 27.088 103.851 26.956 104.187 26.692C104.523 26.416 104.691 26.008 104.691 25.468C104.691 24.916 104.523 24.508 104.187 24.244C103.851 23.98 103.371 23.848 102.747 23.848H100.533V27.088Z" fill="#FFECEC"/>
<path d="M142.243 28.7071C142.634 28.3166 142.634 27.6834 142.243 27.2929L135.879 20.9289C135.489 20.5384 134.855 20.5384 134.465 20.9289C134.074 21.3195 134.074 21.9526 134.465 22.3431L140.122 28L134.465 33.6569C134.074 34.0474 134.074 34.6805 134.465 35.0711C134.855 35.4616 135.489 35.4616 135.879 35.0711L142.243 28.7071ZM123 28L123 29L141.536 29L141.536 28L141.536 27L123 27L123 28Z" fill="#FFECEC"/>
<defs>
<filter id="filter0_d_1212_803" x="0" y="0" width="159.263" height="55.6351" filterUnits="userSpaceOnUse" color-interpolation-filters="sRGB">
<feFlood flood-opacity="0" result="BackgroundImageFix"/>
<feColorMatrix in="SourceAlpha" type="matrix" values="0 0 0 0 0 0 0 0 0 0 0 0 0 0 0 0 0 0 127 0" result="hardAlpha"/>
<feOffset/>
<feGaussianBlur stdDeviation="2.5"/>
<feComposite in2="hardAlpha" operator="out"/>
<feColorMatrix type="matrix" values="0 0 0 0 0.623529 0 0 0 0 0.623529 0 0 0 0 0.603922 0 0 0 0.4 0"/>
<feBlend mode="normal" in2="BackgroundImageFix" result="effect1_dropShadow_1212_803"/>
<feBlend mode="normal" in="SourceGraphic" in2="effect1_dropShadow_1212_803" result="shape"/>
</filter>
</defs>
</svg>
