<svg width="150" height="56" viewBox="0 0 150 56" fill="none" xmlns="http://www.w3.org/2000/svg">
<g filter="url(#filter0_d_1217_712)">
<path d="M5 27.8176C5 15.2158 15.2158 5 27.8176 5H121.826C134.428 5 144.644 15.2158 144.644 27.8176C144.644 40.4194 134.428 50.6352 121.826 50.6352H27.8176C15.2158 50.6352 5 40.4194 5 27.8176Z" fill="#FF383C" fill-opacity="0.5" shape-rendering="crispEdges"/>
</g>
<path d="M57.5583 34V21.31H63.6783C65.0463 21.31 66.1023 21.604 66.8463 22.192C67.6023 22.78 67.9803 23.578 67.9803 24.586C67.9803 25.33 67.7643 25.966 67.3323 26.494C66.9123 27.022 66.3363 27.382 65.6043 27.574V27.286C66.1923 27.394 66.6843 27.586 67.0803 27.862C67.4763 28.138 67.7823 28.492 67.9983 28.924C68.2143 29.344 68.3223 29.836 68.3223 30.4C68.3223 31.132 68.1423 31.768 67.7823 32.308C67.4223 32.848 66.9063 33.268 66.2343 33.568C65.5743 33.856 64.7823 34 63.8583 34H57.5583ZM60.7263 31.57H63.4083C63.6603 31.57 63.8823 31.552 64.0743 31.516C64.2663 31.48 64.4283 31.426 64.5603 31.354C64.6923 31.282 64.8063 31.192 64.9023 31.084C64.9983 30.964 65.0643 30.832 65.1003 30.688C65.1483 30.532 65.1723 30.358 65.1723 30.166C65.1723 29.986 65.1483 29.824 65.1003 29.68C65.0643 29.524 64.9983 29.392 64.9023 29.284C64.8063 29.164 64.6923 29.068 64.5603 28.996C64.4283 28.924 64.2663 28.87 64.0743 28.834C63.8823 28.798 63.6603 28.78 63.4083 28.78H60.7263V31.57ZM60.7263 26.35H63.0843C63.6843 26.35 64.1223 26.242 64.3983 26.026C64.6863 25.81 64.8303 25.48 64.8303 25.036C64.8303 24.592 64.6863 24.268 64.3983 24.064C64.1223 23.848 63.6843 23.74 63.0843 23.74H60.7263V26.35ZM68.6318 34L74.5718 21.31H77.1818L83.1218 34H79.8098L78.3158 30.508L79.5758 31.426H72.1598L73.4378 30.508L71.9438 34H68.6318ZM75.8498 24.766L73.7618 29.752L73.2578 28.888H78.4958L77.9918 29.752L75.8858 24.766H75.8498ZM89.9819 34.198C88.5779 34.198 87.3719 33.928 86.3639 33.388C85.3559 32.848 84.5819 32.086 84.0419 31.102C83.5139 30.118 83.2499 28.966 83.2499 27.646C83.2499 26.326 83.5139 25.18 84.0419 24.208C84.5819 23.224 85.3559 22.462 86.3639 21.922C87.3719 21.382 88.5779 21.112 89.9819 21.112C90.8219 21.112 91.6319 21.238 92.4119 21.49C93.1919 21.742 93.8219 22.084 94.3019 22.516L93.3119 25.126C92.7839 24.742 92.2559 24.46 91.7279 24.28C91.1999 24.088 90.6599 23.992 90.1079 23.992C88.9919 23.992 88.1519 24.31 87.5879 24.946C87.0239 25.57 86.7419 26.47 86.7419 27.646C86.7419 28.834 87.0239 29.746 87.5879 30.382C88.1519 31.006 88.9919 31.318 90.1079 31.318C90.6599 31.318 91.1999 31.228 91.7279 31.048C92.2559 30.856 92.7839 30.568 93.3119 30.184L94.3019 32.794C93.8219 33.214 93.1919 33.556 92.4119 33.82C91.6319 34.072 90.8219 34.198 89.9819 34.198ZM95.9313 34V21.31H99.2433V26.746H99.2793L104.211 21.31H108.135L101.871 28.006V26.656L108.333 34H104.391L99.2793 28.276H99.2433V34H95.9313Z" fill="#FFECEC"/>
<path d="M19.2928 28.7071C18.9023 28.3166 18.9023 27.6834 19.2928 27.2929L25.6568 20.9289C26.0473 20.5384 26.6805 20.5384 27.071 20.9289C27.4615 21.3195 27.4615 21.9526 27.071 22.3431L21.4142 28L27.071 33.6569C27.4615 34.0474 27.4615 34.6805 27.071 35.0711C26.6805 35.4616 26.0473 35.4616 25.6568 35.0711L19.2928 28.7071ZM37.3413 28L37.3413 29L20 29L20 28L20 27L37.3413 27L37.3413 28Z" fill="#FFECEC"/>
<defs>
<filter id="filter0_d_1217_712" x="0" y="0" width="149.644" height="55.6351" filterUnits="userSpaceOnUse" color-interpolation-filters="sRGB">
<feFlood flood-opacity="0" result="BackgroundImageFix"/>
<feColorMatrix in="SourceAlpha" type="matrix" values="0 0 0 0 0 0 0 0 0 0 0 0 0 0 0 0 0 0 127 0" result="hardAlpha"/>
<feOffset/>
<feGaussianBlur stdDeviation="2.5"/>
<feComposite in2="hardAlpha" operator="out"/>
<feColorMatrix type="matrix" values="0 0 0 0 0.623529 0 0 0 0 0.623529 0 0 0 0 0.603922 0 0 0 0.4 0"/>
<feBlend mode="normal" in2="BackgroundImageFix" result="effect1_dropShadow_1217_712"/>
<feBlend mode="normal" in="SourceGraphic" in2="effect1_dropShadow_1217_712" result="shape"/>
</filter>
</defs>
</svg>
