<svg width="151" height="57" viewBox="0 0 151 57" fill="none" xmlns="http://www.w3.org/2000/svg">
<g filter="url(#filter0_d_1209_623)">
<path d="M5.61914 28.3408C5.61914 15.739 15.8349 5.52319 28.4367 5.52319H122.445C135.047 5.52319 145.263 15.739 145.263 28.3408C145.263 40.9426 135.047 51.1583 122.445 51.1583H28.4367C15.8349 51.1583 5.61914 40.9426 5.61914 28.3408Z" fill="#FF383C" fill-opacity="0.5" shape-rendering="crispEdges"/>
</g>
<path d="M32.5563 35.9359V23.2459H35.8683V33.1819H41.5203V35.9359H32.5563ZM48.5025 36.1339C47.5425 36.1339 46.6665 35.9779 45.8745 35.6659C45.0825 35.3539 44.3985 34.9099 43.8225 34.3339C43.2585 33.7459 42.8205 33.0499 42.5085 32.2459C42.2085 31.4419 42.0585 30.5539 42.0585 29.5819C42.0585 28.5979 42.2085 27.7039 42.5085 26.8999C42.8205 26.0959 43.2585 25.4059 43.8225 24.8299C44.3985 24.2539 45.0825 23.8159 45.8745 23.5159C46.6665 23.2039 47.5425 23.0479 48.5025 23.0479C49.4625 23.0479 50.3385 23.2039 51.1305 23.5159C51.9225 23.8159 52.6005 24.2539 53.1645 24.8299C53.7405 25.4059 54.1785 26.0959 54.4785 26.8999C54.7905 27.6919 54.9465 28.5799 54.9465 29.5639C54.9465 30.5599 54.7905 31.4599 54.4785 32.2639C54.1785 33.0679 53.7405 33.7639 53.1645 34.3519C52.6005 34.9279 51.9225 35.3719 51.1305 35.6839C50.3385 35.9839 49.4625 36.1339 48.5025 36.1339ZM48.5025 33.3619C49.1385 33.3619 49.6785 33.2119 50.1225 32.9119C50.5665 32.6119 50.9085 32.1799 51.1485 31.6159C51.3885 31.0519 51.5085 30.3739 51.5085 29.5819C51.5085 28.7899 51.3885 28.1119 51.1485 27.5479C50.9205 26.9839 50.5785 26.5579 50.1225 26.2699C49.6785 25.9699 49.1385 25.8199 48.5025 25.8199C47.8785 25.8199 47.3385 25.9699 46.8825 26.2699C46.4385 26.5579 46.0965 26.9839 45.8565 27.5479C45.6165 28.1119 45.4965 28.7899 45.4965 29.5819C45.4965 30.3739 45.6105 31.0519 45.8385 31.6159C46.0785 32.1799 46.4265 32.6119 46.8825 32.9119C47.3385 33.2119 47.8785 33.3619 48.5025 33.3619ZM63.382 36.1339C61.93 36.1339 60.694 35.8639 59.674 35.3239C58.666 34.7839 57.898 34.0279 57.37 33.0559C56.842 32.0839 56.578 30.9499 56.578 29.6539C56.578 28.3099 56.854 27.1459 57.406 26.1619C57.97 25.1659 58.774 24.3979 59.818 23.8579C60.862 23.3179 62.122 23.0479 63.598 23.0479C64.186 23.0479 64.762 23.1019 65.326 23.2099C65.89 23.3059 66.406 23.4559 66.874 23.6599C67.354 23.8519 67.762 24.0799 68.098 24.3439L67.09 26.8999C66.526 26.5399 65.968 26.2819 65.416 26.1259C64.864 25.9579 64.264 25.8739 63.616 25.8739C62.404 25.8739 61.498 26.1979 60.898 26.8459C60.31 27.4819 60.016 28.4179 60.016 29.6539C60.016 30.8779 60.316 31.8019 60.916 32.4259C61.516 33.0499 62.404 33.3619 63.58 33.3619C63.94 33.3619 64.33 33.3259 64.75 33.2539C65.182 33.1819 65.614 33.0799 66.046 32.9479L65.434 34.1899V31.1119H62.896V28.7899H68.134V35.1619C67.69 35.3659 67.204 35.5399 66.676 35.6839C66.16 35.8279 65.62 35.9359 65.056 36.0079C64.504 36.0919 63.946 36.1339 63.382 36.1339ZM70.3493 35.9359V23.2459H73.6613V35.9359H70.3493ZM75.9567 35.9359V23.2459H78.3867L84.7227 31.1479H84.2187V23.2459H87.2787V35.9359H84.8667L78.5307 28.0159H79.0347V35.9359H75.9567Z" fill="#FFECEC"/>
<path d="M119.502 29.0479C119.892 28.6574 119.892 28.0242 119.502 27.6337L113.138 21.2698C112.747 20.8792 112.114 20.8792 111.723 21.2698C111.333 21.6603 111.333 22.2934 111.723 22.684L117.38 28.3408L111.723 33.9977C111.333 34.3882 111.333 35.0214 111.723 35.4119C112.114 35.8024 112.747 35.8024 113.138 35.4119L119.502 29.0479ZM101.453 28.3408L101.453 29.3408L118.794 29.3408L118.794 28.3408L118.794 27.3408L101.453 27.3408L101.453 28.3408Z" fill="#FFECEC"/>
<defs>
<filter id="filter0_d_1209_623" x="0.619141" y="0.523193" width="149.644" height="55.6351" filterUnits="userSpaceOnUse" color-interpolation-filters="sRGB">
<feFlood flood-opacity="0" result="BackgroundImageFix"/>
<feColorMatrix in="SourceAlpha" type="matrix" values="0 0 0 0 0 0 0 0 0 0 0 0 0 0 0 0 0 0 127 0" result="hardAlpha"/>
<feOffset/>
<feGaussianBlur stdDeviation="2.5"/>
<feComposite in2="hardAlpha" operator="out"/>
<feColorMatrix type="matrix" values="0 0 0 0 0.623529 0 0 0 0 0.623529 0 0 0 0 0.603922 0 0 0 0.4 0"/>
<feBlend mode="normal" in2="BackgroundImageFix" result="effect1_dropShadow_1209_623"/>
<feBlend mode="normal" in="SourceGraphic" in2="effect1_dropShadow_1209_623" result="shape"/>
</filter>
</defs>
</svg>
