<svg width="230" height="62" viewBox="0 0 230 62" fill="none" xmlns="http://www.w3.org/2000/svg">
<path d="M21.1443 20V0.259999H24.7283V16.948H34.1923V20H21.1443ZM43.1422 20.28C41.5929 20.28 40.2582 19.9907 39.1382 19.412C38.0182 18.8333 37.1502 18.012 36.5342 16.948C35.9369 15.884 35.6382 14.624 35.6382 13.168C35.6382 11.7493 35.9276 10.508 36.5062 9.444C37.1036 8.38 37.9156 7.54933 38.9422 6.952C39.9876 6.336 41.1729 6.028 42.4982 6.028C43.8049 6.028 44.9249 6.308 45.8582 6.868C46.7916 7.428 47.5102 8.22133 48.0142 9.248C48.5369 10.2747 48.7982 11.4973 48.7982 12.916V13.952H38.4662V11.936H46.3342L45.8862 12.356C45.8862 11.0867 45.6062 10.116 45.0462 9.444C44.4862 8.75333 43.6836 8.408 42.6382 8.408C41.8542 8.408 41.1822 8.59467 40.6222 8.968C40.0809 9.32267 39.6609 9.836 39.3622 10.508C39.0822 11.1613 38.9422 11.9453 38.9422 12.86V13.056C38.9422 14.0827 39.1009 14.932 39.4182 15.604C39.7356 16.276 40.2116 16.78 40.8462 17.116C41.4809 17.452 42.2649 17.62 43.1982 17.62C43.9636 17.62 44.7289 17.508 45.4942 17.284C46.2596 17.0413 46.9596 16.668 47.5942 16.164L48.5742 18.516C47.9209 19.0573 47.0996 19.4867 46.1102 19.804C45.1209 20.1213 44.1316 20.28 43.1422 20.28ZM57.7873 20.28C55.958 20.28 54.5953 19.8227 53.6993 18.908C52.8033 17.9933 52.3553 16.6587 52.3553 14.904V8.94H49.7233V6.308H52.3553V2.22H55.8553V6.308H59.9993V8.94H55.8553V14.708C55.8553 15.604 56.0513 16.276 56.4433 16.724C56.8353 17.172 57.47 17.396 58.3473 17.396C58.6086 17.396 58.8793 17.368 59.1593 17.312C59.4393 17.2373 59.7286 17.1627 60.0273 17.088L60.5593 19.664C60.2233 19.8507 59.794 20 59.2713 20.112C58.7673 20.224 58.2726 20.28 57.7873 20.28ZM67.2734 20.28C66.5081 20.28 65.7614 20.2147 65.0334 20.084C64.3241 19.9533 63.6707 19.776 63.0734 19.552C62.4761 19.3093 61.9534 19.0107 61.5054 18.656L62.4014 16.36C62.8681 16.6587 63.3721 16.92 63.9134 17.144C64.4547 17.368 65.0147 17.536 65.5934 17.648C66.1721 17.76 66.7414 17.816 67.3014 17.816C68.1974 17.816 68.8601 17.6667 69.2894 17.368C69.7374 17.0507 69.9614 16.64 69.9614 16.136C69.9614 15.7067 69.8121 15.38 69.5134 15.156C69.2334 14.9133 68.8041 14.736 68.2254 14.624L65.4254 14.092C64.2681 13.868 63.3814 13.448 62.7654 12.832C62.1681 12.1973 61.8694 11.3853 61.8694 10.396C61.8694 9.5 62.1121 8.72533 62.5974 8.072C63.1014 7.41867 63.7921 6.91467 64.6694 6.56C65.5467 6.20533 66.5547 6.028 67.6934 6.028C68.3467 6.028 68.9814 6.09333 69.5974 6.224C70.2134 6.336 70.7921 6.51333 71.3334 6.756C71.8934 6.98 72.3787 7.27867 72.7894 7.652L71.8374 9.948C71.4827 9.64933 71.0721 9.39733 70.6054 9.192C70.1387 8.968 69.6534 8.8 69.1494 8.688C68.6641 8.55733 68.1881 8.492 67.7214 8.492C66.8067 8.492 66.1254 8.65067 65.6774 8.968C65.2481 9.28533 65.0334 9.70533 65.0334 10.228C65.0334 10.62 65.1641 10.9467 65.4254 11.208C65.6867 11.4693 66.0881 11.6467 66.6294 11.74L69.4294 12.272C70.6427 12.496 71.5574 12.9067 72.1734 13.504C72.8081 14.1013 73.1254 14.904 73.1254 15.912C73.1254 16.8267 72.8827 17.6107 72.3974 18.264C71.9121 18.9173 71.2307 19.4213 70.3534 19.776C69.4761 20.112 68.4494 20.28 67.2734 20.28ZM83.5362 20V6.308H86.9522V9.052H86.6442C86.8868 8.41733 87.2228 7.876 87.6522 7.428C88.0815 6.98 88.5948 6.63467 89.1922 6.392C89.7895 6.14933 90.4522 6.028 91.1802 6.028C92.2815 6.028 93.1868 6.28933 93.8962 6.812C94.6055 7.33467 95.1002 8.13733 95.3802 9.22H94.9882C95.3615 8.23067 95.9775 7.456 96.8362 6.896C97.6948 6.31733 98.6842 6.028 99.8042 6.028C100.849 6.028 101.708 6.23333 102.38 6.644C103.071 7.05467 103.584 7.68 103.92 8.52C104.256 9.34133 104.424 10.3867 104.424 11.656V20H100.924V11.796C100.924 10.7507 100.747 9.98533 100.392 9.5C100.056 9.01467 99.4775 8.772 98.6562 8.772C98.0588 8.772 97.5362 8.92133 97.0882 9.22C96.6402 9.5 96.2948 9.91067 96.0522 10.452C95.8282 10.9933 95.7162 11.6467 95.7162 12.412V20H92.2162V11.796C92.2162 10.7507 92.0388 9.98533 91.6842 9.5C91.3482 9.01467 90.7788 8.772 89.9762 8.772C89.3602 8.772 88.8282 8.92133 88.3802 9.22C87.9508 9.5 87.6148 9.91067 87.3722 10.452C87.1482 10.9933 87.0362 11.6467 87.0362 12.412V20H83.5362ZM114.783 20.28C113.234 20.28 111.899 19.9907 110.779 19.412C109.659 18.8333 108.791 18.012 108.175 16.948C107.578 15.884 107.279 14.624 107.279 13.168C107.279 11.7493 107.568 10.508 108.147 9.444C108.744 8.38 109.556 7.54933 110.583 6.952C111.628 6.336 112.814 6.028 114.139 6.028C115.446 6.028 116.566 6.308 117.499 6.868C118.432 7.428 119.151 8.22133 119.655 9.248C120.178 10.2747 120.439 11.4973 120.439 12.916V13.952H110.107V11.936H117.975L117.527 12.356C117.527 11.0867 117.247 10.116 116.687 9.444C116.127 8.75333 115.324 8.408 114.279 8.408C113.495 8.408 112.823 8.59467 112.263 8.968C111.722 9.32267 111.302 9.836 111.003 10.508C110.723 11.1613 110.583 11.9453 110.583 12.86V13.056C110.583 14.0827 110.742 14.932 111.059 15.604C111.376 16.276 111.852 16.78 112.487 17.116C113.122 17.452 113.906 17.62 114.839 17.62C115.604 17.62 116.37 17.508 117.135 17.284C117.9 17.0413 118.6 16.668 119.235 16.164L120.215 18.516C119.562 19.0573 118.74 19.4867 117.751 19.804C116.762 20.1213 115.772 20.28 114.783 20.28ZM129.959 20.28C128.409 20.28 127.075 19.9907 125.955 19.412C124.835 18.8333 123.967 18.012 123.351 16.948C122.753 15.884 122.455 14.624 122.455 13.168C122.455 11.7493 122.744 10.508 123.323 9.444C123.92 8.38 124.732 7.54933 125.759 6.952C126.804 6.336 127.989 6.028 129.315 6.028C130.621 6.028 131.741 6.308 132.675 6.868C133.608 7.428 134.327 8.22133 134.831 9.248C135.353 10.2747 135.615 11.4973 135.615 12.916V13.952H125.283V11.936H133.151L132.703 12.356C132.703 11.0867 132.423 10.116 131.863 9.444C131.303 8.75333 130.5 8.408 129.455 8.408C128.671 8.408 127.999 8.59467 127.439 8.968C126.897 9.32267 126.477 9.836 126.179 10.508C125.899 11.1613 125.759 11.9453 125.759 12.86V13.056C125.759 14.0827 125.917 14.932 126.235 15.604C126.552 16.276 127.028 16.78 127.663 17.116C128.297 17.452 129.081 17.62 130.015 17.62C130.78 17.62 131.545 17.508 132.311 17.284C133.076 17.0413 133.776 16.668 134.411 16.164L135.391 18.516C134.737 19.0573 133.916 19.4867 132.927 19.804C131.937 20.1213 130.948 20.28 129.959 20.28ZM144.604 20.28C142.774 20.28 141.412 19.8227 140.516 18.908C139.62 17.9933 139.172 16.6587 139.172 14.904V8.94H136.54V6.308H139.172V2.22H142.672V6.308H146.816V8.94H142.672V14.708C142.672 15.604 142.868 16.276 143.26 16.724C143.652 17.172 144.286 17.396 145.164 17.396C145.425 17.396 145.696 17.368 145.976 17.312C146.256 17.2373 146.545 17.1627 146.844 17.088L147.376 19.664C147.04 19.8507 146.61 20 146.088 20.112C145.584 20.224 145.089 20.28 144.604 20.28ZM156.625 20V6.308H160.041V9.052H159.733C160.143 8.06267 160.778 7.316 161.637 6.812C162.514 6.28933 163.503 6.028 164.605 6.028C165.706 6.028 166.611 6.23333 167.321 6.644C168.03 7.05467 168.562 7.68 168.917 8.52C169.271 9.34133 169.449 10.3867 169.449 11.656V20H165.949V11.824C165.949 11.1147 165.855 10.536 165.669 10.088C165.501 9.64 165.23 9.31333 164.857 9.108C164.502 8.884 164.045 8.772 163.485 8.772C162.813 8.772 162.225 8.92133 161.721 9.22C161.217 9.5 160.825 9.91067 160.545 10.452C160.265 10.9747 160.125 11.5907 160.125 12.3V20H156.625ZM179.752 20.28C178.202 20.28 176.868 19.9907 175.748 19.412C174.628 18.8333 173.76 18.012 173.144 16.948C172.546 15.884 172.248 14.624 172.248 13.168C172.248 11.7493 172.537 10.508 173.116 9.444C173.713 8.38 174.525 7.54933 175.552 6.952C176.597 6.336 177.782 6.028 179.108 6.028C180.414 6.028 181.534 6.308 182.468 6.868C183.401 7.428 184.12 8.22133 184.624 9.248C185.146 10.2747 185.408 11.4973 185.408 12.916V13.952H175.076V11.936H182.944L182.496 12.356C182.496 11.0867 182.216 10.116 181.656 9.444C181.096 8.75333 180.293 8.408 179.248 8.408C178.464 8.408 177.792 8.59467 177.232 8.968C176.69 9.32267 176.27 9.836 175.972 10.508C175.692 11.1613 175.552 11.9453 175.552 12.86V13.056C175.552 14.0827 175.71 14.932 176.028 15.604C176.345 16.276 176.821 16.78 177.456 17.116C178.09 17.452 178.874 17.62 179.808 17.62C180.573 17.62 181.338 17.508 182.104 17.284C182.869 17.0413 183.569 16.668 184.204 16.164L185.184 18.516C184.53 19.0573 183.709 19.4867 182.72 19.804C181.73 20.1213 180.741 20.28 179.752 20.28ZM191.741 20L186.337 6.308H189.921L193.729 16.808H193.085L196.949 6.308H199.413L203.221 16.808H202.633L206.441 6.308H209.829L204.453 20H201.401L197.257 9.052H198.853L194.793 20H191.741ZM0.136406 61.04V42.308H3.55241V45.192H3.27241C3.55241 44.24 4.12174 43.4747 4.98041 42.896C5.85774 42.3173 6.87507 42.028 8.03241 42.028C9.22707 42.028 10.2724 42.3173 11.1684 42.896C12.0831 43.4747 12.7924 44.296 13.2964 45.36C13.8004 46.4053 14.0524 47.6653 14.0524 49.14C14.0524 50.596 13.8004 51.8653 13.2964 52.948C12.7924 54.012 12.0924 54.8333 11.1964 55.412C10.3004 55.9907 9.24574 56.28 8.03241 56.28C6.89374 56.28 5.89507 56 5.03641 55.44C4.17774 54.8613 3.59907 54.1147 3.30041 53.2H3.63641V61.04H0.136406ZM7.05241 53.62C8.09774 53.62 8.93774 53.2467 9.57241 52.5C10.2071 51.7347 10.5244 50.6147 10.5244 49.14C10.5244 47.6467 10.2071 46.536 9.57241 45.808C8.93774 45.0613 8.09774 44.688 7.05241 44.688C6.00707 44.688 5.16707 45.0613 4.53241 45.808C3.89774 46.536 3.58041 47.6467 3.58041 49.14C3.58041 50.6147 3.89774 51.7347 4.53241 52.5C5.16707 53.2467 6.00707 53.62 7.05241 53.62ZM23.6735 56.28C22.1241 56.28 20.7895 55.9907 19.6695 55.412C18.5495 54.8333 17.6815 54.012 17.0655 52.948C16.4681 51.884 16.1695 50.624 16.1695 49.168C16.1695 47.7493 16.4588 46.508 17.0375 45.444C17.6348 44.38 18.4468 43.5493 19.4735 42.952C20.5188 42.336 21.7041 42.028 23.0295 42.028C24.3361 42.028 25.4561 42.308 26.3895 42.868C27.3228 43.428 28.0415 44.2213 28.5455 45.248C29.0681 46.2747 29.3295 47.4973 29.3295 48.916V49.952H18.9975V47.936H26.8655L26.4175 48.356C26.4175 47.0867 26.1375 46.116 25.5775 45.444C25.0175 44.7533 24.2148 44.408 23.1695 44.408C22.3855 44.408 21.7135 44.5947 21.1535 44.968C20.6121 45.3227 20.1921 45.836 19.8935 46.508C19.6135 47.1613 19.4735 47.9453 19.4735 48.86V49.056C19.4735 50.0827 19.6321 50.932 19.9495 51.604C20.2668 52.276 20.7428 52.78 21.3775 53.116C22.0121 53.452 22.7961 53.62 23.7295 53.62C24.4948 53.62 25.2601 53.508 26.0255 53.284C26.7908 53.0413 27.4908 52.668 28.1255 52.164L29.1055 54.516C28.4521 55.0573 27.6308 55.4867 26.6415 55.804C25.6521 56.1213 24.6628 56.28 23.6735 56.28ZM38.3453 56.28C36.9266 56.28 35.6946 55.9907 34.6493 55.412C33.6039 54.8333 32.7919 54.012 32.2133 52.948C31.6346 51.8653 31.3453 50.596 31.3453 49.14C31.3453 47.684 31.6346 46.424 32.2133 45.36C32.7919 44.296 33.6039 43.4747 34.6493 42.896C35.6946 42.3173 36.9266 42.028 38.3453 42.028C39.7639 42.028 40.9959 42.3173 42.0413 42.896C43.0866 43.4747 43.8986 44.296 44.4773 45.36C45.0559 46.424 45.3453 47.684 45.3453 49.14C45.3453 50.596 45.0559 51.8653 44.4773 52.948C43.8986 54.012 43.0866 54.8333 42.0413 55.412C40.9959 55.9907 39.7639 56.28 38.3453 56.28ZM38.3453 53.62C39.3906 53.62 40.2306 53.2467 40.8653 52.5C41.4999 51.7347 41.8173 50.6147 41.8173 49.14C41.8173 47.6467 41.4999 46.536 40.8653 45.808C40.2306 45.0613 39.3906 44.688 38.3453 44.688C37.2999 44.688 36.4599 45.0613 35.8253 45.808C35.1906 46.536 34.8733 47.6467 34.8733 49.14C34.8733 50.6147 35.1906 51.7347 35.8253 52.5C36.4599 53.2467 37.2999 53.62 38.3453 53.62ZM48.2341 61.04V42.308H51.6501V45.192H51.3701C51.6501 44.24 52.2194 43.4747 53.0781 42.896C53.9554 42.3173 54.9727 42.028 56.1301 42.028C57.3247 42.028 58.3701 42.3173 59.2661 42.896C60.1807 43.4747 60.8901 44.296 61.3941 45.36C61.8981 46.4053 62.1501 47.6653 62.1501 49.14C62.1501 50.596 61.8981 51.8653 61.3941 52.948C60.8901 54.012 60.1901 54.8333 59.2941 55.412C58.3981 55.9907 57.3434 56.28 56.1301 56.28C54.9914 56.28 53.9927 56 53.1341 55.44C52.2754 54.8613 51.6967 54.1147 51.3981 53.2H51.7341V61.04H48.2341ZM55.1501 53.62C56.1954 53.62 57.0354 53.2467 57.6701 52.5C58.3047 51.7347 58.6221 50.6147 58.6221 49.14C58.6221 47.6467 58.3047 46.536 57.6701 45.808C57.0354 45.0613 56.1954 44.688 55.1501 44.688C54.1047 44.688 53.2647 45.0613 52.6301 45.808C51.9954 46.536 51.6781 47.6467 51.6781 49.14C51.6781 50.6147 51.9954 51.7347 52.6301 52.5C53.2647 53.2467 54.1047 53.62 55.1501 53.62ZM69.7831 56.28C68.1591 56.28 66.9551 55.8413 66.1711 54.964C65.4058 54.068 65.0231 52.7613 65.0231 51.044V36.26H68.5231V50.876C68.5231 51.4173 68.5978 51.884 68.7471 52.276C68.9151 52.6493 69.1578 52.9293 69.4751 53.116C69.7925 53.3027 70.1845 53.396 70.6511 53.396C70.8565 53.396 71.0618 53.3867 71.2671 53.368C71.4725 53.3493 71.6685 53.312 71.8551 53.256L71.7991 56.028C71.4631 56.1027 71.1271 56.1587 70.7911 56.196C70.4738 56.252 70.1378 56.28 69.7831 56.28ZM80.5758 56.28C79.0265 56.28 77.6918 55.9907 76.5718 55.412C75.4518 54.8333 74.5838 54.012 73.9678 52.948C73.3705 51.884 73.0718 50.624 73.0718 49.168C73.0718 47.7493 73.3611 46.508 73.9398 45.444C74.5371 44.38 75.3491 43.5493 76.3758 42.952C77.4211 42.336 78.6065 42.028 79.9318 42.028C81.2385 42.028 82.3585 42.308 83.2918 42.868C84.2251 43.428 84.9438 44.2213 85.4478 45.248C85.9705 46.2747 86.2318 47.4973 86.2318 48.916V49.952H75.8998V47.936H83.7678L83.3198 48.356C83.3198 47.0867 83.0398 46.116 82.4798 45.444C81.9198 44.7533 81.1171 44.408 80.0718 44.408C79.2878 44.408 78.6158 44.5947 78.0558 44.968C77.5145 45.3227 77.0945 45.836 76.7958 46.508C76.5158 47.1613 76.3758 47.9453 76.3758 48.86V49.056C76.3758 50.0827 76.5345 50.932 76.8518 51.604C77.1691 52.276 77.6451 52.78 78.2798 53.116C78.9145 53.452 79.6985 53.62 80.6318 53.62C81.3971 53.62 82.1625 53.508 82.9278 53.284C83.6931 53.0413 84.3931 52.668 85.0278 52.164L86.0078 54.516C85.3545 55.0573 84.5331 55.4867 83.5438 55.804C82.5545 56.1213 81.5651 56.28 80.5758 56.28ZM101.058 56.28C100.069 56.28 99.1825 56.0933 98.3985 55.72C97.6331 55.328 97.0265 54.8053 96.5785 54.152C96.1491 53.4987 95.9345 52.7613 95.9345 51.94C95.9345 50.932 96.1958 50.1387 96.7185 49.56C97.2411 48.9627 98.0905 48.5333 99.2665 48.272C100.442 48.0107 102.02 47.88 103.998 47.88H105.398V49.896H104.026C103.149 49.896 102.412 49.9333 101.814 50.008C101.217 50.064 100.732 50.1667 100.358 50.316C100.004 50.4467 99.7425 50.6333 99.5745 50.876C99.4251 51.1187 99.3505 51.4173 99.3505 51.772C99.3505 52.388 99.5651 52.892 99.9945 53.284C100.424 53.676 101.021 53.872 101.786 53.872C102.402 53.872 102.944 53.732 103.41 53.452C103.896 53.1533 104.278 52.752 104.558 52.248C104.838 51.744 104.978 51.1653 104.978 50.512V47.292C104.978 46.3587 104.773 45.6867 104.362 45.276C103.952 44.8653 103.261 44.66 102.29 44.66C101.525 44.66 100.741 44.7813 99.9385 45.024C99.1358 45.248 98.3238 45.6027 97.5025 46.088L96.4945 43.708C96.9798 43.372 97.5491 43.0827 98.2025 42.84C98.8745 42.5787 99.5745 42.3827 100.302 42.252C101.049 42.1027 101.749 42.028 102.402 42.028C103.746 42.028 104.848 42.2333 105.706 42.644C106.584 43.0547 107.237 43.68 107.666 44.52C108.096 45.3413 108.31 46.4053 108.31 47.712V56H105.034V53.088H105.258C105.128 53.7413 104.866 54.3107 104.474 54.796C104.101 55.2627 103.625 55.6267 103.046 55.888C102.468 56.1493 101.805 56.28 101.058 56.28ZM111.863 56V42.308H115.279V45.612H114.999C115.26 44.492 115.774 43.6427 116.539 43.064C117.304 42.4667 118.322 42.1213 119.591 42.028L120.655 41.944L120.879 44.912L118.863 45.108C117.724 45.22 116.866 45.5747 116.287 46.172C115.708 46.7507 115.419 47.572 115.419 48.636V56H111.863ZM128.853 56.28C127.434 56.28 126.202 55.9907 125.157 55.412C124.112 54.8333 123.3 54.012 122.721 52.948C122.142 51.8653 121.853 50.596 121.853 49.14C121.853 47.684 122.142 46.424 122.721 45.36C123.3 44.296 124.112 43.4747 125.157 42.896C126.202 42.3173 127.434 42.028 128.853 42.028C130.272 42.028 131.504 42.3173 132.549 42.896C133.594 43.4747 134.406 44.296 134.985 45.36C135.564 46.424 135.853 47.684 135.853 49.14C135.853 50.596 135.564 51.8653 134.985 52.948C134.406 54.012 133.594 54.8333 132.549 55.412C131.504 55.9907 130.272 56.28 128.853 56.28ZM128.853 53.62C129.898 53.62 130.738 53.2467 131.373 52.5C132.008 51.7347 132.325 50.6147 132.325 49.14C132.325 47.6467 132.008 46.536 131.373 45.808C130.738 45.0613 129.898 44.688 128.853 44.688C127.808 44.688 126.968 45.0613 126.333 45.808C125.698 46.536 125.381 47.6467 125.381 49.14C125.381 50.6147 125.698 51.7347 126.333 52.5C126.968 53.2467 127.808 53.62 128.853 53.62ZM143.698 56.28C142.559 56.28 141.617 56.0747 140.87 55.664C140.123 55.2347 139.563 54.6 139.19 53.76C138.835 52.92 138.658 51.8747 138.658 50.624V42.308H142.158V50.68C142.158 51.3147 142.242 51.8467 142.41 52.276C142.597 52.7053 142.867 53.0227 143.222 53.228C143.595 53.4333 144.062 53.536 144.622 53.536C145.257 53.536 145.807 53.396 146.274 53.116C146.759 52.8173 147.133 52.4067 147.394 51.884C147.674 51.3427 147.814 50.7173 147.814 50.008V42.308H151.314V56H147.898V53.144H148.29C147.898 54.152 147.301 54.9267 146.498 55.468C145.714 56.0093 144.781 56.28 143.698 56.28ZM154.957 56V42.308H158.373V45.052H158.065C158.475 44.0627 159.11 43.316 159.969 42.812C160.846 42.2893 161.835 42.028 162.937 42.028C164.038 42.028 164.943 42.2333 165.653 42.644C166.362 43.0547 166.894 43.68 167.249 44.52C167.603 45.3413 167.781 46.3867 167.781 47.656V56H164.281V47.824C164.281 47.1147 164.187 46.536 164.001 46.088C163.833 45.64 163.562 45.3133 163.189 45.108C162.834 44.884 162.377 44.772 161.817 44.772C161.145 44.772 160.557 44.9213 160.053 45.22C159.549 45.5 159.157 45.9107 158.877 46.452C158.597 46.9747 158.457 47.5907 158.457 48.3V56H154.957ZM176.6 56.28C175.405 56.28 174.35 55.9907 173.436 55.412C172.54 54.8333 171.84 54.012 171.336 52.948C170.832 51.8653 170.58 50.596 170.58 49.14C170.58 47.6653 170.832 46.4053 171.336 45.36C171.84 44.296 172.54 43.4747 173.436 42.896C174.35 42.3173 175.405 42.028 176.6 42.028C177.738 42.028 178.728 42.308 179.568 42.868C180.426 43.428 181.005 44.1653 181.304 45.08H180.996V36.26H184.496V56H181.08V53.088H181.332C181.052 54.0587 180.482 54.8333 179.624 55.412C178.765 55.9907 177.757 56.28 176.6 56.28ZM177.58 53.62C178.625 53.62 179.465 53.2467 180.1 52.5C180.734 51.7347 181.052 50.6147 181.052 49.14C181.052 47.6467 180.734 46.536 180.1 45.808C179.465 45.0613 178.625 44.688 177.58 44.688C176.534 44.688 175.694 45.0613 175.06 45.808C174.425 46.536 174.108 47.6467 174.108 49.14C174.108 50.6147 174.425 51.7347 175.06 52.5C175.694 53.2467 176.534 53.62 177.58 53.62ZM200.628 56.28C199.489 56.28 198.546 56.0747 197.8 55.664C197.053 55.2347 196.493 54.6 196.12 53.76C195.765 52.92 195.588 51.8747 195.588 50.624V42.308H199.088V50.68C199.088 51.3147 199.172 51.8467 199.34 52.276C199.526 52.7053 199.797 53.0227 200.152 53.228C200.525 53.4333 200.992 53.536 201.552 53.536C202.186 53.536 202.737 53.396 203.204 53.116C203.689 52.8173 204.062 52.4067 204.324 51.884C204.604 51.3427 204.744 50.7173 204.744 50.008V42.308H208.244V56H204.828V53.144H205.22C204.828 54.152 204.23 54.9267 203.428 55.468C202.644 56.0093 201.71 56.28 200.628 56.28ZM216.898 56.28C216.133 56.28 215.386 56.2147 214.658 56.084C213.949 55.9533 213.296 55.776 212.698 55.552C212.101 55.3093 211.578 55.0107 211.13 54.656L212.026 52.36C212.493 52.6587 212.997 52.92 213.538 53.144C214.08 53.368 214.64 53.536 215.218 53.648C215.797 53.76 216.366 53.816 216.926 53.816C217.822 53.816 218.485 53.6667 218.914 53.368C219.362 53.0507 219.586 52.64 219.586 52.136C219.586 51.7067 219.437 51.38 219.138 51.156C218.858 50.9133 218.429 50.736 217.85 50.624L215.05 50.092C213.893 49.868 213.006 49.448 212.39 48.832C211.793 48.1973 211.494 47.3853 211.494 46.396C211.494 45.5 211.737 44.7253 212.222 44.072C212.726 43.4187 213.417 42.9147 214.294 42.56C215.172 42.2053 216.18 42.028 217.318 42.028C217.972 42.028 218.606 42.0933 219.222 42.224C219.838 42.336 220.417 42.5133 220.958 42.756C221.518 42.98 222.004 43.2787 222.414 43.652L221.462 45.948C221.108 45.6493 220.697 45.3973 220.23 45.192C219.764 44.968 219.278 44.8 218.774 44.688C218.289 44.5573 217.813 44.492 217.346 44.492C216.432 44.492 215.75 44.6507 215.302 44.968C214.873 45.2853 214.658 45.7053 214.658 46.228C214.658 46.62 214.789 46.9467 215.05 47.208C215.312 47.4693 215.713 47.6467 216.254 47.74L219.054 48.272C220.268 48.496 221.182 48.9067 221.798 49.504C222.433 50.1013 222.75 50.904 222.75 51.912C222.75 52.8267 222.508 53.6107 222.022 54.264C221.537 54.9173 220.856 55.4213 219.978 55.776C219.101 56.112 218.074 56.28 216.898 56.28ZM226.146 50.148L225.054 36.26H229.366L228.274 50.148H226.146ZM225.25 56V52.108H229.17V56H225.25Z" fill="black"/>
</svg>
